<?xml version="1.0" encoding="utf-8"?>
<!-- Generator: Adobe Illustrator 18.1.1, SVG Export Plug-In . SVG Version: 6.00 Build 0)  -->
<svg xmlns="http://www.w3.org/2000/svg" xmlns:xlink="http://www.w3.org/1999/xlink" version="1.1" id="Layer_1" x="0px" y="0px" width="280.8px" height="66px" viewBox="0 0 280.8 66" xml:space="preserve">
<g>
	<path fill="#F37021" d="M33.3,35.1c-1.2,0-2.5,0.3-3.6,1c-1.1,0.6-2,1.6-2.7,2.6L12.8,63h9c1.2,0,2.5-0.3,3.6-1   c1.1-0.6,2-1.6,2.7-2.6l14.3-24.4H33.3z"/>
	<path fill="#595A5C" d="M38,23.7c-0.6-1-1.5-1.9-2.7-2.6c-1.1-0.6-2.4-0.9-3.6-0.9h-9.1l4.3,7.3c0.6,1,1.5,1.9,2.7,2.6   c1.1,0.6,2.4,0.9,3.6,0.9h9.1L38,23.7z"/>
	<path fill="#595A5C" d="M37.5,11.6l9.4,15.8c0.6,1,1.5,1.9,2.7,2.6c1.1,0.6,2.4,0.9,3.6,0.9h9.1l-9.4-15.8c-0.6-1-1.5-1.9-2.7-2.6   c-1.1-0.6-2.4-0.9-3.6-0.9H37.5z"/>
	<path fill="#F37021" d="M37.6,54.4h9c1.2,0,2.5-0.3,3.6-1c1.1-0.7,2-1.6,2.7-2.6l9.2-15.8h-9c-1.2,0-2.5,0.3-3.6,1   c-1.1,0.6-2,1.6-2.7,2.6L37.6,54.4z"/>
	<path fill="#F37021" d="M62.5,45.8h6.9h2.2c1.2,0,2.5-0.3,3.6-1c1.1-0.7,2-1.6,2.7-2.6l4.2-7.2h-9c-1.2,0-2.5,0.3-3.6,1   c-1.1,0.6-2,1.6-2.7,2.6L62.5,45.8z"/>
	<path fill="#595A5C" d="M66.8,27.4c0.6,1,1.5,1.9,2.7,2.6c1.1,0.6,2.4,0.9,3.6,0.9h9.1L67.6,6.5c-0.6-1-1.5-1.9-2.7-2.6   C63.9,3.3,62.6,3,61.4,3h-9.1L66.8,27.4z"/>
</g>
<g>
	<path fill="#F37021" d="M107.9,37.5c0,6.3-5.7,7.1-11.7,7.1c-3.2,0-5.7-0.3-8-0.9v-5c2.2,0.5,4.7,0.9,7.9,0.9   c4.5,0,5.7-0.2,5.7-2.5c0-1.1-0.9-1.5-2.4-1.7c-1.3-0.2-3.1-0.3-5-0.6c-3.5-0.4-6.7-1.7-6.7-5.8v-1.1c0-6.1,5.1-6.9,11.2-6.9   c3,0,5.4,0.3,7.8,0.9v4.9c-2.4-0.5-5-0.9-7.8-0.9c-3.9,0-5.1,0.4-5.1,2.3c0,1.5,0.9,1.7,2.6,2c5,0.9,11.5,0.2,11.5,6V37.5z"/>
	<path fill="#F37021" d="M129.8,43.8c-1,0.3-5,0.9-7.8,0.9c-8.4,0-11.7-2.6-11.7-9.4v-4.9c0-6.8,2.3-9.4,10.3-9.4s9.8,2.6,9.8,9.4   v4.5h-14.2v0.4c0,3,1.7,4.4,6.1,4.4c2.7,0,6.5-0.5,7.5-0.9V43.8z M124.8,30c0-3-1-4.3-4.3-4.3c-3.2,0-4.3,1.2-4.3,4.3v0.6h8.6V30z"/>
	<path fill="#F37021" d="M148.4,43.9V29c0-1.9-1.1-2.6-3.1-2.6c-2.3,0-4.1,0.6-5.7,2v15.4h-6.2V21.5h5.5l0.2,2.7   c1.8-2.3,4.5-3.3,8.7-3.3c4.6,0,6.7,2,6.7,6.2v16.8H148.4z"/>
	<path fill="#F37021" d="M177.2,43.8c-1,0.3-5,0.9-7.8,0.9c-8.4,0-11.7-2.6-11.7-9.4v-4.9c0-6.8,2.3-9.4,10.3-9.4s9.8,2.6,9.8,9.4   v4.5h-14.2v0.4c0,3,1.7,4.4,6.1,4.4c2.7,0,6.5-0.5,7.5-0.9V43.8z M172.2,30c0-3-1-4.3-4.3-4.3c-3.2,0-4.3,1.2-4.3,4.3v0.6h8.6V30z"/>
	<path fill="#F37021" d="M196.5,43.9l-4.8-7.2l-5,7.2h-7.5l8.9-11.7l-7.9-10.7h7.5l4,6.2l4.2-6.2h7.4l-8,10.6l8.4,11.8H196.5z"/>
	<path fill="#595A5C" d="M206,43.9V21.5h5.6l0.1,2.7c1.9-2.3,4.2-3.2,8.1-3.3v5.7c-0.5,0-0.9,0-1.3,0c-2.3,0-4.5,0.5-6.3,2.1v15.2   H206z"/>
	<path fill="#595A5C" d="M241.3,43.8c-1,0.3-5,0.9-7.8,0.9c-8.4,0-11.7-2.6-11.7-9.4v-4.9c0-6.8,2.3-9.4,10.3-9.4s9.8,2.6,9.8,9.4   v4.5h-14.2v0.4c0,3,1.7,4.4,6.1,4.4c2.7,0,6.5-0.5,7.5-0.9V43.8z M236.3,30c0-3-1-4.3-4.3-4.3c-3.2,0-4.3,1.2-4.3,4.3v0.6h8.6V30z"/>
	<path fill="#595A5C" d="M260.7,43.9l-4.8-7.2l-5,7.2h-7.5l8.9-11.7l-7.9-10.7h7.5l4,6.2l4.2-6.2h7.4l-8,10.6l8.4,11.8H260.7z"/>
</g>
<g>
</g>
<g>
</g>
<g>
</g>
<g>
</g>
<g>
</g>
<g>
</g>
</svg>
