<?xml version="1.0" encoding="utf-8"?>
<!-- Generator: Adobe Illustrator 18.1.1, SVG Export Plug-In . SVG Version: 6.00 Build 0)  -->
<svg xmlns="http://www.w3.org/2000/svg" xmlns:xlink="http://www.w3.org/1999/xlink" version="1.1" id="Layer_1" x="0px" y="0px" viewBox="0 0 76.3 66" xml:space="preserve">
<g>
	<path fill="#F37021" d="M24,35.1c-1.2,0-2.5,0.3-3.6,1c-1.1,0.6-2,1.6-2.7,2.6L3.5,63h9c1.2,0,2.5-0.3,3.6-1c1.1-0.6,2-1.6,2.7-2.6   l14.3-24.4H24z"/>
	<path fill="#595A5C" d="M28.7,23.7c-0.6-1-1.5-1.9-2.7-2.6c-1.1-0.6-2.4-0.9-3.6-0.9h-9.1l4.3,7.3c0.6,1,1.5,1.9,2.7,2.6   c1.1,0.6,2.4,0.9,3.6,0.9h9.1L28.7,23.7z"/>
	<path fill="#595A5C" d="M28.2,11.6l9.4,15.8c0.6,1,1.5,1.9,2.7,2.6c1.1,0.6,2.4,0.9,3.6,0.9h9.1l-9.4-15.8c-0.6-1-1.5-1.9-2.7-2.6   c-1.1-0.6-2.4-0.9-3.6-0.9H28.2z"/>
	<path fill="#F37021" d="M28.3,54.4h9c1.2,0,2.5-0.3,3.6-1c1.1-0.7,2-1.6,2.7-2.6l9.2-15.8h-9c-1.2,0-2.5,0.3-3.6,1   c-1.1,0.6-2,1.6-2.7,2.6L28.3,54.4z"/>
	<path fill="#F37021" d="M53.2,45.8H60h2.2c1.2,0,2.5-0.3,3.6-1c1.1-0.7,2-1.6,2.7-2.6l4.2-7.2h-9c-1.2,0-2.5,0.3-3.6,1   c-1.1,0.6-2,1.6-2.7,2.6L53.2,45.8z"/>
	<path fill="#595A5C" d="M57.5,27.4c0.6,1,1.5,1.9,2.7,2.6c1.1,0.6,2.4,0.9,3.6,0.9h9.1L58.4,6.5c-0.6-1-1.5-1.9-2.7-2.6   C54.6,3.3,53.3,3,52.1,3H43L57.5,27.4z"/>
</g>
</svg>
